<?xml version="1.0" encoding="UTF-8" standalone="no"?>
<svg
   id="gdt-widget"
   alt="{alt-text}"
   width="75"
   height="75"
   viewBox="0 0 75 75"
   preserveAspectRatio="xMidYMid"
   rendering="crispEdges"
   version="1.1"
   xmlns="http://www.w3.org/2000/svg"
   xmlns:svg="http://www.w3.org/2000/svg">
  <defs
     id="gdt-w-defs1" />
  <g
     id="gdt-w-logo"
     style="display:inline"
     transform="translate(-35,10)">
    <rect
       style="opacity:1;fill:#492910;fill-opacity:1;stroke-width:12.5;stroke-miterlimit:1.56;paint-order:stroke fill markers"
       id="gdt-w-lg-bg"
       width="64.153496"
       height="55.860046"
       x="0"
       y="0"
       transform="translate(40)" />
    <g
       id="gdt-w-controller"
       style="display:inline">
      <path
         id="gdt-w-c-body"
         style="opacity:1;fill:#f9e8d6"
         d="m 48,4 v 4 h -4 v 40 h 4 v 4 H 84 V 40 H 72 V 16 H 84 V 4 Z" />
      <g
         id="gdt-w-c-buttons">
        <rect
           id="gdt-w-c-button-y"
           x="52"
           y="16"
           width="4"
           height="4"
           shape-rendering="crispEdges"
           style="display:inline;opacity:1;fill:#e17635" />
        <rect
           id="gdt-w-c-button-x"
           x="48"
           y="12"
           width="4"
           height="4"
           shape-rendering="crispEdges"
           style="display:inline;opacity:1;fill:#e1b935" />
        <rect
           id="gdt-w-c-button-b"
           x="56"
           y="12"
           width="4"
           height="4"
           shape-rendering="crispEdges"
           style="display:inline;opacity:1;fill:#00b37f" />
        <rect
           id="gdt-w-c-button-a"
           x="52"
           y="8"
           width="4"
           height="4"
           shape-rendering="crispEdges"
           style="display:inline;opacity:1;fill:#e13535" />
      </g>
      <path
         id="gdt-w-c-joycon-right"
         style="display:inline;opacity:1;fill:#492910"
         d="m 60,16 v 8 h 8 v -8 z" />
      <path
         id="gdt-w-c-joycon-left"
         style="display:inline;opacity:1;fill:#492910"
         d="m 48,36 v 8 h 8 v -8 z" />
      <g
         id="gdt-w-c-cross">
        <path
           id="gdt-w-c-cross-base"
           style="display:inline;opacity:1;fill:#bba086"
           d="m 60,28 v 4 h -4 v 4 h 4 v 4 h 4 v -4 h 4 v -4 h -4 v -4 z" />
        <rect
           id="gdt-w-c-cross-center"
           x="60"
           y="32"
           width="4"
           height="4"
           shape-rendering="crispEdges"
           style="display:inline;opacity:1;fill:#492910" />
      </g>
    </g>
    <path
       id="gdt-w-lg-red"
       style="display:inline;opacity:1;fill:#e13535;fill-opacity:1"
       d="m 88,36 v 16 h 12 V 36 Z" />
    <path
       id="gdt-w-lg-orange"
       style="display:inline;opacity:1;fill:#e18735;fill-opacity:1"
       d="m 80,24 v 12 h 8 v 4 h 12 V 24 h -4 z" />
    <path
       id="gdt-w-lg-yellow"
       style="display:inline;opacity:1;fill:#e1b935;fill-opacity:1"
       d="m 80,24 v 4 h 20 v -4 z" />
    <path
       id="gdt-w-lg-green"
       style="opacity:1;fill:#00b37f"
       d="m 88,4 v 12 h 12 V 4 Z" />
  </g>
</svg>
